# xmcd CD database file
#
# Track frame offsets:
#	150
#	30736
#	50901
#	66938
#	94925
#	120318
#	153137
#	196856
#	228850
#	256490
#
# Disc length: 3814 seconds
#
# Revision: 2
# Processed by: cddbd v1.5.2PL0 Copyright (c) Steve Scherf et al.
# Submitted via: CDex 1.51
#
DISCID=7f0ee40a
DTITLE=Victor Feldman - Victor Feldman in London (Vol. 2)
DYEAR=1957
DGENRE=Jazz
TTITLE0=Blues in two Modes
TTITLE1=Jennie
TTITLE2=One Momentum
TTITLE3=Karen
TTITLE4=Strollin'
TTITLE5=Four
TTITLE6=Ballad Medley
TTITLE7=Wail
TTITLE8=It ain't necessarily so
TTITLE9=Wailing Call
EXTD=YEAR: 1957
EXTT0=
EXTT1=
EXTT2=
EXTT3=
EXTT4=
EXTT5=
EXTT6=
EXTT7=
EXTT8=
EXTT9=
PLAYORDER=
